# xmcd
#
# Track frame offsets:
#	36195
#	46747
#	57202
#	81747
#	94282
#	147697
#	160102
#	173782
#	185180
#	196727
#	220177
#	239307
#
# Disc length: 3296 seconds
#
# Revision: 0
# Processed by: cddbd v1.5.1PL2 Copyright (c) Steve Scherf et al.
# Submitted via: dBpowerAMP V4.0
#
DISCID=bb0afe0c
DTITLE=Various Artist - Country Superstars
DYEAR=1989
DGENRE=Country
TTITLE0=Kenny rogers - Ruby don't take your love to town
TTITLE1=Lynn Anderson - Rose garden
TTITLE2=Willie Nelson - Building heartaches
TTITLE3=Dolly Parton - Honky tonk angels
TTITLE4=Waylon Jennings - Lorena
TTITLE5=Patsy Cline - Walking after midnight
TTITLE6=Johnny Cash - Folsom prison blues
TTITLE7=Billy Jo Spears - Sunshine
TTITLE8=Alabama - Patches
TTITLE9=the Everly Brothers - All i have to do is dream
TTITLE10=Kenny Rogers - Ruben James
TTITLE11=Lynn Anderson - Blue Bayou
EXTD=
EXTT0=
EXTT1=
EXTT2=
EXTT3=
EXTT4=
EXTT5=
EXTT6=
EXTT7=
EXTT8=
EXTT9=
EXTT10=
EXTT11=
PLAYORDER=
